<mxfile modified="2021-12-14T19:29:04.515Z" host="app.diagrams.net" agent="5.0 (Windows NT 10.0; Win64; x64) AppleWebKit/537.36 (KHTML, like Gecko) Chrome/96.0.4664.93 Safari/537.36" etag="W4iDZo-Uba2_vSIe3xz_" version="15.9.6" type="github">
  <diagram id="l8hXMBHkgcEJcSW0mbfh" name="Page-1">
    <mxGraphModel dx="1038" dy="579" grid="1" gridSize="10" guides="1" tooltips="1" connect="1" arrows="1" fold="1" page="1" pageScale="1" pageWidth="1169" pageHeight="827" math="0" shadow="0">
      <root>
        <mxCell id="0" />
        <mxCell id="1" parent="0" />
        <mxCell id="qWhOXsIowy7xErqyPnte-4" style="edgeStyle=orthogonalEdgeStyle;rounded=0;orthogonalLoop=1;jettySize=auto;html=1;exitX=0;exitY=0.5;exitDx=0;exitDy=0;" edge="1" parent="1" source="qWhOXsIowy7xErqyPnte-1" target="qWhOXsIowy7xErqyPnte-3">
          <mxGeometry relative="1" as="geometry" />
        </mxCell>
        <mxCell id="qWhOXsIowy7xErqyPnte-1" value="Interwebs" style="aspect=fixed;perimeter=ellipsePerimeter;html=1;align=center;shadow=0;dashed=0;spacingTop=3;image;image=img/lib/active_directory/internet_globe.svg;horizontal=1;fontSize=25;" vertex="1" parent="1">
          <mxGeometry x="660" y="92.5" width="225" height="225" as="geometry" />
        </mxCell>
        <mxCell id="qWhOXsIowy7xErqyPnte-2" value="Windows 10" style="points=[];aspect=fixed;html=1;align=center;shadow=0;dashed=0;image;image=img/lib/allied_telesis/computer_and_terminals/Personal_Computer.svg;fontSize=16;" vertex="1" parent="1">
          <mxGeometry x="280" y="174.1" width="45.6" height="61.800000000000004" as="geometry" />
        </mxCell>
        <mxCell id="qWhOXsIowy7xErqyPnte-3" value="pfSense" style="image;html=1;image=img/lib/clip_art/networking/Router_Icon_128x128.png;fontSize=18;" vertex="1" parent="1">
          <mxGeometry x="430" y="165" width="80" height="80" as="geometry" />
        </mxCell>
        <mxCell id="qWhOXsIowy7xErqyPnte-7" style="edgeStyle=orthogonalEdgeStyle;rounded=0;orthogonalLoop=1;jettySize=auto;html=1;exitX=1;exitY=0.5;exitDx=0;exitDy=0;entryX=0;entryY=0.5;entryDx=0;entryDy=0;" edge="1" parent="1">
          <mxGeometry relative="1" as="geometry">
            <mxPoint x="513" y="210" as="sourcePoint" />
            <mxPoint x="663.0000000000007" y="210" as="targetPoint" />
          </mxGeometry>
        </mxCell>
        <mxCell id="qWhOXsIowy7xErqyPnte-8" style="edgeStyle=orthogonalEdgeStyle;rounded=0;orthogonalLoop=1;jettySize=auto;html=1;exitX=0;exitY=0.5;exitDx=0;exitDy=0;" edge="1" parent="1">
          <mxGeometry relative="1" as="geometry">
            <mxPoint x="428.0000000000007" y="200" as="sourcePoint" />
            <mxPoint x="328" y="200" as="targetPoint" />
          </mxGeometry>
        </mxCell>
        <mxCell id="qWhOXsIowy7xErqyPnte-9" style="edgeStyle=orthogonalEdgeStyle;rounded=0;orthogonalLoop=1;jettySize=auto;html=1;entryX=0;entryY=0.5;entryDx=0;entryDy=0;" edge="1" parent="1" target="qWhOXsIowy7xErqyPnte-3">
          <mxGeometry relative="1" as="geometry">
            <mxPoint x="330" y="205" as="sourcePoint" />
            <mxPoint x="420" y="240" as="targetPoint" />
          </mxGeometry>
        </mxCell>
      </root>
    </mxGraphModel>
  </diagram>
</mxfile>
